<?xml version="1.0" encoding="utf-8"?>
<!-- Generator: Adobe Illustrator 26.0.0, SVG Export Plug-In . SVG Version: 6.00 Build 0)  -->
<svg version="1.1" id="Capa_1" xmlns="http://www.w3.org/2000/svg" xmlns:xlink="http://www.w3.org/1999/xlink" x="0px" y="0px"
	 viewBox="0 0 141.73 35.54" style="enable-background:new 0 0 141.73 35.54;" xml:space="preserve">
<style type="text/css">
	.st0{fill:#010202;}
</style>
<g>
	<path class="st0" d="M132.61,24.17c0.06,0.06,0.14,0.12,0.22,0.16c0.08,0.05,0.16,0.08,0.24,0.1c0.08,0.02,0.18,0.03,0.26,0.03
		c0.1,0,0.18-0.01,0.26-0.03c0.08-0.02,0.17-0.05,0.25-0.1c0.08-0.04,0.15-0.1,0.21-0.16c0.07-0.06,0.12-0.14,0.17-0.22
		c0.04-0.09,0.08-0.17,0.1-0.27c0.02-0.08,0.04-0.17,0.04-0.25c0-0.1-0.02-0.18-0.04-0.27c-0.02-0.09-0.06-0.17-0.1-0.25
		c-0.05-0.08-0.11-0.16-0.17-0.23c-0.05-0.06-0.13-0.12-0.21-0.16c-0.08-0.05-0.17-0.08-0.25-0.11c-0.08-0.02-0.16-0.03-0.26-0.03
		c-0.08,0-0.17,0.02-0.25,0.03c-0.09,0.02-0.16,0.06-0.25,0.11c-0.08,0.04-0.15,0.1-0.22,0.16c-0.06,0.07-0.12,0.14-0.16,0.23
		c-0.05,0.08-0.08,0.16-0.11,0.25c-0.02,0.09-0.03,0.17-0.03,0.27c0,0.09,0.01,0.17,0.03,0.25c0.02,0.1,0.06,0.18,0.11,0.27
		C132.49,24.03,132.55,24.11,132.61,24.17z M132.51,23.21c0.02-0.07,0.05-0.15,0.09-0.21c0.03-0.07,0.08-0.13,0.13-0.19
		c0.06-0.05,0.11-0.09,0.19-0.13c0.07-0.04,0.13-0.07,0.21-0.09c0.07-0.01,0.14-0.02,0.21-0.02c0.08,0,0.15,0.01,0.21,0.02
		c0.08,0.02,0.14,0.05,0.21,0.09c0.07,0.04,0.13,0.08,0.18,0.13c0.06,0.06,0.11,0.12,0.14,0.19c0.04,0.06,0.07,0.14,0.09,0.21
		c0.02,0.07,0.03,0.15,0.03,0.22c0,0.07,0,0.15-0.03,0.22c-0.02,0.07-0.05,0.14-0.08,0.21c-0.04,0.07-0.08,0.13-0.14,0.18
		c-0.05,0.05-0.11,0.1-0.18,0.14c-0.07,0.03-0.14,0.07-0.21,0.09c-0.07,0.02-0.14,0.03-0.22,0.03c-0.07,0-0.14-0.01-0.21-0.03
		c-0.08-0.02-0.14-0.05-0.21-0.09c-0.07-0.04-0.13-0.09-0.19-0.14c-0.05-0.05-0.09-0.12-0.13-0.18c-0.03-0.07-0.06-0.14-0.08-0.21
		c-0.02-0.07-0.03-0.14-0.03-0.22C132.48,23.35,132.49,23.28,132.51,23.21z"/>
	<path class="st0" d="M133.07,24.01v-0.24v-0.24h0.05h0.05c0.03,0,0.06,0.01,0.08,0.01c0.03,0.01,0.04,0.02,0.06,0.03
		c0.02,0.01,0.06,0.05,0.09,0.09c0.04,0.04,0.07,0.1,0.1,0.17l0.05,0.09l0.04,0.09h0.11h0.11l-0.07-0.12l-0.07-0.11
		c-0.03-0.05-0.06-0.1-0.09-0.13c-0.03-0.04-0.05-0.07-0.08-0.09c-0.01-0.01-0.02-0.03-0.04-0.03c-0.01-0.01-0.04-0.03-0.06-0.03
		c0.05,0,0.09-0.01,0.13-0.04c0.04-0.01,0.08-0.04,0.11-0.07c0.03-0.03,0.04-0.07,0.06-0.1c0.02-0.03,0.03-0.07,0.03-0.11
		c0-0.02,0-0.05-0.02-0.08c-0.01-0.03-0.02-0.06-0.04-0.08c-0.01-0.03-0.03-0.04-0.06-0.07c-0.02-0.02-0.05-0.03-0.08-0.04
		c-0.03-0.02-0.07-0.02-0.11-0.02c-0.04,0-0.1-0.01-0.17-0.01h-0.19h-0.19v0.55v0.57h0.09H133.07z M133.07,23.21v-0.17h0.1h0.1
		c0.04,0,0.08,0,0.11,0c0.04,0.01,0.06,0.01,0.07,0.02c0.02,0,0.03,0.01,0.04,0.03c0.02,0.01,0.03,0.02,0.04,0.04
		c0.01,0.01,0.02,0.03,0.02,0.04c0,0.02,0,0.03,0,0.05c0,0.02,0,0.05,0,0.07c-0.02,0.02-0.03,0.05-0.05,0.06
		c-0.02,0.02-0.05,0.03-0.08,0.03c-0.04,0.01-0.08,0.01-0.13,0.01h-0.11h-0.1V23.21z"/>
	<polygon class="st0" points="43.76,19.49 47.39,14.45 49.89,18.05 50.32,18.67 50.58,19.08 51.19,19.97 54.33,24.66 57.01,24.66 
		47.53,11.4 37.63,24.66 40.18,24.66 43.15,20.44 	"/>
	<polygon class="st0" points="78.74,25.19 78.74,11.63 76.32,11.63 76.32,21.53 60.02,11.35 60.02,24.66 62.43,24.66 62.43,14.99 	
		"/>
	<path class="st0" d="M88.31,14.44c0.9-0.48,1.96-0.86,3.15-1.1c1.2-0.25,2.54-0.38,4-0.38c0.65,0,1.29,0.03,1.92,0.09
		c0.6,0.06,1.22,0.16,1.82,0.28c0.32,0.06,0.65,0.14,1.07,0.26c0.31,0.08,0.65,0.19,1.05,0.34l0.29,0.11v-1.66l-0.16-0.04
		c-0.3-0.09-0.63-0.18-1-0.27c-0.34-0.08-0.7-0.15-1.06-0.21c-0.67-0.11-1.33-0.19-1.98-0.24c-1.63-0.12-3.2-0.11-4.58,0.04
		c-0.78,0.07-1.55,0.19-2.36,0.35c-0.82,0.17-1.52,0.36-2.15,0.58c-0.67,0.22-1.27,0.47-1.82,0.76c-0.57,0.29-1.07,0.61-1.51,0.96
		c-0.44,0.36-0.82,0.74-1.12,1.14c-0.32,0.43-0.54,0.85-0.7,1.29c-0.15,0.43-0.23,0.89-0.23,1.39c0,0.52,0.07,0.97,0.22,1.4
		c0.15,0.45,0.38,0.88,0.68,1.29c0.32,0.43,0.68,0.8,1.1,1.14c0.44,0.34,0.94,0.66,1.52,0.97c0.55,0.29,1.17,0.55,1.83,0.78
		c0.67,0.23,1.4,0.42,2.15,0.58c0.77,0.16,1.56,0.28,2.35,0.36c0.84,0.09,1.68,0.13,2.47,0.13c0.61,0,1.25-0.03,1.88-0.09
		c0.62-0.04,1.26-0.12,1.9-0.22c0.36-0.05,0.74-0.12,1.22-0.22c0.36-0.07,0.75-0.16,1.17-0.27l0.17-0.04v-1.67l-0.29,0.09
		c-0.43,0.14-0.79,0.24-1.14,0.33c-0.36,0.09-0.75,0.18-1.19,0.26c-0.57,0.11-1.19,0.2-1.88,0.27c-0.61,0.06-1.25,0.09-1.94,0.09
		c-0.64,0-1.3-0.03-1.95-0.09c-0.65-0.07-1.25-0.17-1.83-0.29c-0.57-0.12-1.13-0.28-1.66-0.47c-0.49-0.17-0.98-0.38-1.45-0.62
		c-0.44-0.24-0.84-0.5-1.19-0.78c-0.32-0.27-0.6-0.56-0.82-0.87c-0.21-0.29-0.37-0.61-0.48-0.97c-0.11-0.33-0.16-0.69-0.16-1.07
		c0-0.75,0.21-1.44,0.65-2.05C86.74,15.47,87.42,14.91,88.31,14.44z"/>
	<polygon class="st0" points="105.99,11.61 105.99,24.61 108.52,24.61 108.52,18.13 122.15,18.13 122.15,24.61 124.68,24.61 
		124.68,11.61 122.15,11.61 122.15,16.7 108.52,16.7 108.52,11.61 	"/>
	<rect x="128.91" y="11.57" class="st0" width="2.54" height="13.09"/>
	<rect x="32.29" y="11.62" class="st0" width="2.54" height="13.04"/>
	<path class="st0" d="M25.33,14.67c0.19-0.36,0.28-0.75,0.28-1.17c0-0.34-0.06-0.66-0.18-0.98c-0.12-0.31-0.29-0.6-0.52-0.87
		c-0.23-0.28-0.5-0.52-0.82-0.75c-0.34-0.23-0.71-0.44-1.11-0.6c-0.27-0.12-0.59-0.23-0.99-0.33c-0.33-0.08-0.72-0.15-1.17-0.2
		c-0.37-0.04-0.86-0.07-1.65-0.1c-0.68-0.01-1.47-0.01-2.39,0L9.01,9.69v14.76l4.64,0.01l4.42,0.01h0c1.19-0.02,2.22-0.06,3.1-0.11
		c0.83-0.05,1.52-0.13,2.05-0.22c0.52-0.09,0.98-0.2,1.43-0.36c0.42-0.13,0.81-0.31,1.21-0.54c0.39-0.22,0.7-0.44,0.95-0.66
		c0.26-0.22,0.48-0.47,0.7-0.79c0.18-0.28,0.32-0.59,0.41-0.9c0.1-0.32,0.14-0.66,0.14-1.02c0-0.51-0.12-0.97-0.36-1.38
		c-0.24-0.42-0.6-0.79-1.07-1.11c-0.54-0.36-1.18-0.63-1.9-0.82c-0.43-0.11-0.92-0.19-1.45-0.24c0.49-0.19,0.89-0.41,1.24-0.69
		C24.88,15.34,25.15,15.02,25.33,14.67z M11.58,11.41l6.07-0.04c0.95-0.01,1.77,0.02,2.46,0.11c0.65,0.08,1.17,0.22,1.53,0.4
		c0.36,0.18,0.61,0.4,0.78,0.7c0.18,0.3,0.27,0.67,0.29,1.1c0,0.41-0.08,0.75-0.25,1.03c-0.18,0.29-0.44,0.52-0.79,0.69
		c-0.36,0.18-0.86,0.33-1.52,0.43c-0.67,0.1-1.48,0.16-2.42,0.18l-6.13,0.04L11.58,11.41z M23.35,18.1
		c0.27,0.09,0.51,0.21,0.72,0.35c0.22,0.15,0.4,0.32,0.54,0.5c0.14,0.18,0.26,0.38,0.34,0.62c0.08,0.23,0.12,0.47,0.13,0.71
		c0,0.2-0.03,0.4-0.09,0.59c-0.07,0.2-0.16,0.39-0.28,0.57c-0.15,0.21-0.3,0.37-0.47,0.51c-0.17,0.14-0.37,0.27-0.6,0.39
		c-0.2,0.09-0.41,0.17-0.63,0.23c-0.25,0.08-0.53,0.13-0.76,0.16c-0.27,0.04-0.68,0.07-1.24,0.1c-0.53,0.02-1.19,0.03-1.97,0.03
		l-7.42,0.07v-5.1l7.43-0.04l0.46-0.01c0.56,0,1.06,0,1.48,0c0.43,0.01,0.76,0.03,1.01,0.05c0.29,0.03,0.52,0.06,0.74,0.11
		C22.93,17.97,23.12,18.02,23.35,18.1z"/>
</g>
</svg>
